<svg width="116" height="116" viewBox="0 0 116 116" fill="none" xmlns="http://www.w3.org/2000/svg">
<path fill-rule="evenodd" clip-rule="evenodd" d="M116 56.3915C116 55.5959 115.684 54.8328 115.121 54.2702L83.2732 22.4221C82.1002 21.2491 80.1979 21.2507 79.0269 22.4258L37.1159 64.4824C35.2311 66.3738 36.5707 69.6 39.2409 69.6H43.4C45.0569 69.6 46.4 70.9432 46.4 72.6V113C46.4 114.657 47.7431 116 49.4 116L113 116C114.657 116 116 114.657 116 113V56.3915ZM69.6 72.6C69.6 70.9431 70.9431 69.6 72.6 69.6H89.8C91.4568 69.6 92.8 70.9431 92.8 72.6V89.8C92.8 91.4568 91.4569 92.8 89.8 92.8H72.6C70.9431 92.8 69.6 91.4568 69.6 89.8V72.6Z" fill="#EF8354"/>
<path d="M116 15.0965C116 17.7692 112.769 19.1077 110.879 17.2178L97.5607 3.89987C97.5565 3.89565 97.5565 3.8888 97.5607 3.88457C97.565 3.88035 97.565 3.8735 97.5607 3.86927L96.4328 2.74135C95.4212 1.72972 96.1377 0 97.5683 0H113C114.657 0 116 1.34315 116 3V15.0965Z" fill="#EF8354"/>
<path d="M65.8636 2.74127C66.8752 1.72967 66.1587 0 64.7281 0H3C1.34315 0 0 1.34315 0 3V43.4C0 45.0569 1.34314 46.4 3 46.4H20.9929C21.7885 46.4 22.5516 46.084 23.1142 45.5213L64.7357 3.8999C64.7399 3.89566 64.7399 3.88879 64.7357 3.88455C64.7314 3.88031 64.7314 3.87344 64.7357 3.8692L65.8636 2.74127Z" fill="#EF8354"/>
<path d="M3 69.6C1.34315 69.6 0 70.9432 0 72.6V113C0 114.657 1.34314 116 2.99999 116L20.2 116C21.8569 116 23.2 114.657 23.2 113V72.6C23.2 70.9432 21.8569 69.6 20.2 69.6H3Z" fill="#EF8354"/>
</svg>
